<svg xmlns="http://www.w3.org/2000/svg" viewBox="0 0 48 48"><rect width="48" height="48" rx="11" fill="#0a7d6b"/><g transform="translate(12 12)"><path fill="#fff" d="M5 15.5a4.5 4.5 0 1 1 0-9 4.5 4.5 0 0 1 0 9Zm0-2a2.5 2.5 0 1 0 0-5 2.5 2.5 0 0 0 0 5Zm14 2a4.5 4.5 0 1 1 0-9 4.5 4.5 0 0 1 0 9Zm0-2a2.5 2.5 0 1 0 0-5 2.5 2.5 0 0 0 0 5ZM14.5 4h2.2l1 2H19a1 1 0 0 1 0 2h-1.1l-3.2 5.2A1 1 0 0 1 13 13H8.6l-1.8 2.6a1 1 0 1 1-1.6-1.2L7.9 11 12 5.2 11 4h-.5a1 1 0 0 1 0-2h1.7a1 1 0 0 1 .9.55L14 3.9l.5-.9A1 1 0 0 1 14.5 2Zm-1 3.9L10.7 12h2.4l2.5-4.1H13.5Z"/></g></svg>
